<svg id="Layer_1" data-name="Layer 1" xmlns="http://www.w3.org/2000/svg" xmlns:xlink="http://www.w3.org/1999/xlink" viewBox="0 0 1294 791"><defs><style>.cls-1{fill:none;}.cls-2{clip-path:url(#clip-path);}.cls-3{fill:#f2f2f2;}.cls-4{fill:#cd1a1e;}.cls-5{fill:#fad219;}.cls-6{fill:#8dc63f;}</style><clipPath id="clip-path" transform="translate(-183 -102)"><rect class="cls-1" x="218" y="129" width="1220" height="759"/></clipPath></defs><title>metabolic-modeling</title><g class="cls-2"><image width="1223" height="708" transform="translate(0 36) scale(1.06)" xlink:href="../../../../../../Desktop/Screen%20Shot%202020-06-25%20at%203.33.23%20PM.png"/></g><path class="cls-3" d="M1433.88,110.25a.87.87,0,0,1,.87.87V883.88a.87.87,0,0,1-.87.87H223.12a.87.87,0,0,1-.87-.87V111.12a.87.87,0,0,1,.87-.87H1433.88m0-8.25H223.12a9.12,9.12,0,0,0-9.12,9.12V883.88a9.12,9.12,0,0,0,9.12,9.12H1433.88a9.12,9.12,0,0,0,9.12-9.12V111.12a9.12,9.12,0,0,0-9.12-9.12Z" transform="translate(-183 -102)"/><path class="cls-3" d="M1443,143H214V111.13a9.13,9.13,0,0,1,9.13-9.13H1434.86a8.13,8.13,0,0,1,8.14,8.14Z" transform="translate(-183 -102)"/><circle class="cls-4" cx="51" cy="21" r="6"/><circle class="cls-5" cx="74" cy="21" r="6"/><circle class="cls-6" cx="97" cy="21" r="6"/></svg>